<?xml version="1.0" encoding="utf-8"?>
<!-- Generator: Adobe Illustrator 23.1.1, SVG Export Plug-In . SVG Version: 6.00 Build 0)  -->
<svg version="1.1" id="圖層_1" xmlns="http://www.w3.org/2000/svg" xmlns:xlink="http://www.w3.org/1999/xlink" x="0px" y="0px"
	 viewBox="0 0 566.9 566.9" style="enable-background:new 0 0 566.9 566.9;" xml:space="preserve">
<style type="text/css">
	.st0{fill:#681E2F;}
	.st1{fill:#FFFFFF;}
	.st2{fill:none;stroke:#FFFFFF;stroke-width:34;stroke-linecap:round;stroke-linejoin:round;stroke-miterlimit:10;}
	.st3{fill:none;stroke:#FFFFFF;stroke-width:36;stroke-linecap:round;stroke-linejoin:round;stroke-miterlimit:10;}
	.st4{fill:none;stroke:#FFFFFF;stroke-width:3.1346;stroke-linecap:round;stroke-linejoin:round;stroke-miterlimit:10;}
	.st5{fill:none;stroke:#FFFFFF;stroke-width:3.319;stroke-linecap:round;stroke-linejoin:round;stroke-miterlimit:10;}
</style>
<g>
	<g>
		<path class="st0" d="M552.2,141.3c0-0.6,0-0.6,0-1.2c-0.6-1.2-0.6-2.4-1.2-3.6v-0.6c-0.6-1.2-1.8-2.4-2.4-3l-0.6-0.6
			c-0.6-0.6-1.8-1.2-2.4-1.8l-0.6-0.6h-0.6l-0.6-0.6L291.6,4.1c-4.7-2.4-10.7-2.4-16,0l-84.9,42.2l253.5,130l0.6,0.6
			c0.6,0,0.6,0.6,1.2,0.6c0.6,0.6,0.6,1.2,1.2,1.8c0,0.6,0,0.6,0,1.2v0.6v137.7c0,2.4-1.2,4.2-3,5.3l-51.1,26.7
			c-3,1.8-6.5,0.6-8.3-2.4c-0.6-0.6-0.6-1.8-0.6-3V210.7L127.7,78.3l-0.6-0.6L24.4,128.8l-0.6,0.6h-0.6l-0.6,0.6
			c-0.6,0.6-1.8,1.2-2.4,1.8l-0.6,0.6c-1.2,1.2-1.8,2.4-3,3.6v0.6c-0.6,1.2-1.2,2.4-1.2,3.6c0,0.6,0,0.6,0,1.2c0,1.2-0.6,1.8-0.6,3
			v0.6v276.7c0,6.5,3.6,13.1,10.1,16L275,562.2c3.6,1.8,7.7,2.4,11.9,1.2l1.2-0.6c1.2,0,1.8-0.6,3-1.2l251.7-124.7
			c5.9-3,10.1-8.9,10.1-16V144.8v-0.6C552.2,143,552.2,142.4,552.2,141.3z"/>
	</g>
</g>
<polyline class="st2" points="548.1,132.4 283.9,256.2 23.8,129.4 "/>
<line class="st2" x1="283.9" y1="256.2" x2="283.9" y2="589.4"/>
<line class="st3" x1="91.4" y1="413.8" x2="158.6" y2="448.4"/>
</svg>
