<?xml version="1.0" encoding="utf-8"?>
<!-- Generator: Adobe Illustrator 23.1.1, SVG Export Plug-In . SVG Version: 6.00 Build 0)  -->
<svg version="1.1" id="圖層_1" xmlns="http://www.w3.org/2000/svg" xmlns:xlink="http://www.w3.org/1999/xlink" x="0px" y="0px"
	 viewBox="0 0 566.9 566.9" style="enable-background:new 0 0 566.9 566.9;" xml:space="preserve">
<style type="text/css">
	.st0{fill:#681E2F;}
</style>
<g>
	<g>
		<path class="st0" d="M555.1,70.9H82.7c-6.5,0-11.8,5.3-11.8,11.8V437c0,6.5-5.3,11.8-11.8,11.8s-11.8-5.3-11.8-11.8V153.5
			c0-6.5-5.3-11.8-11.8-11.8H11.8C5.3,141.7,0,147,0,153.5V437c0,25.4,16.1,46.8,38.6,55.2c2.2,2.3,5.2,3.9,8.6,3.9h472.4
			c26,0,47.2-21.2,47.2-47.2V82.7C566.9,76.1,561.6,70.9,555.1,70.9z M212.6,153.5c0-6.5,5.3-11.8,11.8-11.8h47.2
			c6.5,0,11.8,5.3,11.8,11.8c0,6.5-5.3,11.8-11.8,11.8h-35.4V189h23.6c6.5,0,11.8,5.3,11.8,11.8c0,6.5-5.3,11.8-11.8,11.8h-23.6
			v23.6h35.4c6.5,0,11.8,5.3,11.8,11.8s-5.3,11.8-11.8,11.8h-47.2c-6.5,0-11.8-5.3-11.8-11.8V153.5z M118.1,153.5
			c0-6.5,5.3-11.8,11.8-11.8h23.6c19.5,0,35.4,15.9,35.4,35.4V248c0,6.5-5.3,11.8-11.8,11.8c-6.5,0-11.8-5.3-11.8-11.8v-70.9
			c0-6.5-5.3-11.8-11.8-11.8h-11.8V248c0,6.5-5.3,11.8-11.8,11.8c-6.5,0-11.8-5.3-11.8-11.8L118.1,153.5L118.1,153.5z M307.1,413.4
			c0,6.5-5.3,11.8-11.8,11.8H129.9c-6.5,0-11.8-5.3-11.8-11.8V295.3c0-6.5,5.3-11.8,11.8-11.8h165.4c6.5,0,11.8,5.3,11.8,11.8
			L307.1,413.4L307.1,413.4z M307.1,212.6v-59.1c0-6.5,5.3-11.8,11.8-11.8s11.8,5.3,11.8,11.8V209l11.8,17.7l11.8-17.7v-55.5
			c0-6.5,5.3-11.8,11.8-11.8c6.5,0,11.8,5.3,11.8,11.8V209l11.8,17.7l11.8-17.7v-55.5c0-6.5,5.3-11.8,11.8-11.8s11.8,5.3,11.8,11.8
			v59.1c0,2.3-0.7,4.6-2,6.6l-23.6,35.4c-2.2,3.3-5.9,5.3-9.8,5.3s-7.6-2-9.8-5.3l-13.8-20.7l-13.8,20.7c-2.2,3.3-5.9,5.3-9.8,5.3
			s-7.6-2-9.8-5.3l-23.6-35.4C307.8,217.2,307.1,214.9,307.1,212.6z M507.9,425.2H342.5c-6.5,0-11.8-5.3-11.8-11.8
			s5.3-11.8,11.8-11.8h165.4c6.5,0,11.8,5.3,11.8,11.8S514.4,425.2,507.9,425.2z M507.9,378H342.5c-6.5,0-11.8-5.3-11.8-11.8
			c0-6.5,5.3-11.8,11.8-11.8h165.4c6.5,0,11.8,5.3,11.8,11.8C519.7,372.7,514.4,378,507.9,378z M507.9,330.7H342.5
			c-6.5,0-11.8-5.3-11.8-11.8s5.3-11.8,11.8-11.8h165.4c6.5,0,11.8,5.3,11.8,11.8S514.4,330.7,507.9,330.7z M484.3,189
			c19.5,0,35.4,15.9,35.4,35.4s-15.9,35.4-35.4,35.4h-23.6c-6.5,0-11.8-5.3-11.8-11.8c0-6.5,5.3-11.8,11.8-11.8h23.6
			c6.5,0,11.8-5.3,11.8-11.8c0-6.5-5.3-11.8-11.8-11.8c-19.5,0-35.4-15.9-35.4-35.4s15.9-35.4,35.4-35.4h23.6
			c6.5,0,11.8,5.3,11.8,11.8s-5.3,11.8-11.8,11.8h-23.6c-6.5,0-11.8,5.3-11.8,11.8S477.7,189,484.3,189z"/>
	</g>
</g>
</svg>
