<?xml version="1.0" encoding="utf-8"?>
<!-- Generator: Adobe Illustrator 23.1.1, SVG Export Plug-In . SVG Version: 6.00 Build 0)  -->
<svg version="1.1" id="圖層_1" xmlns="http://www.w3.org/2000/svg" xmlns:xlink="http://www.w3.org/1999/xlink" x="0px" y="0px"
	 viewBox="0 0 566.9 566.9" style="enable-background:new 0 0 566.9 566.9;" xml:space="preserve">
<style type="text/css">
	.st0{fill:#008756;}
</style>
<g>
	<path class="st0" d="M550.1,247.2c-3.3-5.5-9.2-8.7-15.4-8.7c-31.8,0-61.1,17.8-75.8,46.2L403.5,391c-9.4,18.1-27.8,29.2-48.1,29.2
		H232.7c-10,0-18.1-8.1-18.1-18.2c0-10.1,8.1-18.2,18.1-18.2h122.8c6.7,0,12.9-3.8,16-9.7c3.1-6.1,12.5-24.1,20.7-39.7
		c2.5-5,2.4-10.8-0.5-15.5c-2.9-4.7-8-7.6-13.5-7.6h-188c-24.1,0-46.7,9.5-63.9,26.7L19.5,445.4c-7.1,7.1-7.1,18.7,0,25.7l90.4,90.5
		c3.5,3.5,8.2,5.3,12.8,5.3c4.6,0,9.3-1.8,12.8-5.3L204,493h151.5c47.2,0,90.1-26.2,112.1-68.2L550.7,265
		C553.6,259.4,553.4,252.6,550.1,247.2z"/>
	<g>
		<g>
			<path class="st0" d="M362.2,3l-19.9,30c-3,4.6,0.2,10.7,5.7,10.7h67.7c2.3,0,4.5-1.1,5.7-3L437.7,16c4.6-6.9-0.4-16-8.6-16h-61.3
				C365.5,0,363.4,1.2,362.2,3z"/>
		</g>
	</g>
	<g>
		<g>
			<path class="st0" d="M258.4,0H111.7c-8.2,0-13,9.2-8.6,16l16.4,24.7c1.3,1.9,3.4,3,5.7,3h153.1c5.4,0,8.7-6.1,5.7-10.7L264.1,3
				C262.9,1.2,260.7,0,258.4,0z"/>
		</g>
	</g>
	<path class="st0" d="M293.3,277H143.4c-9.4,0-17.1-7.6-17.1-17.2V86c0-3.8,3-6.9,6.9-6.9h160.1c3.7,0,6.9,3,6.9,6.9v184
		C300.1,273.8,297,277,293.3,277z"/>
	<path class="st0" d="M342.1,277h64.3c9.4,0,17.1-7.6,17.1-17.2V86c0-3.8-3-6.9-6.9-6.9h-74.6c-3.7,0-6.9,3-6.9,6.9v184
		C335.2,273.8,338.3,277,342.1,277z"/>
</g>
</svg>
