<?xml version="1.0" encoding="utf-8"?>
<!-- Generator: Adobe Illustrator 23.1.1, SVG Export Plug-In . SVG Version: 6.00 Build 0)  -->
<svg version="1.1" id="圖層_1" xmlns="http://www.w3.org/2000/svg" xmlns:xlink="http://www.w3.org/1999/xlink" x="0px" y="0px"
	 viewBox="0 0 566.9 566.9" style="enable-background:new 0 0 566.9 566.9;" xml:space="preserve">
<style type="text/css">
	.st0{fill:#681E2F;}
</style>
<g>
	<path class="st0" d="M513.8,94.5c-0.9,0-1.9,0.5-2.8,0.7c-1.2-0.2-2.1-0.7-3.1-0.7h-23.6V23.6c0-13-10.6-23.6-23.6-23.6H106.3
		c-35,0-64,25.5-69.7,59.1c-0.7,1.9-1.2,3.8-1.2,5.9v437c0,35.9,29.1,65,65,65h413.4c9.7,0,17.7-8,17.7-17.7v-437
		C531.5,102.5,523.5,94.5,513.8,94.5z M283.5,484.3c-84.6,0-153.5-69-153.5-153.5c0-84.6,69-153.5,153.5-153.5S437,246.1,437,330.7
		C437,415.3,368,484.3,283.5,484.3z M437,94.5H106.3c-13,0-23.6-10.6-23.6-23.6s10.6-23.6,23.6-23.6H437V94.5z"/>
	<path class="st0" d="M318.9,389.8c-6,0-12.1-2.3-16.7-6.9l-35.4-35.4c-4.4-4.4-6.9-10.4-6.9-16.7v-70.9c0-13.1,10.6-23.6,23.6-23.6
		s23.6,10.6,23.6,23.6v61.1l28.5,28.5c9.2,9.2,9.2,24.2,0,33.4C331,387.4,324.9,389.8,318.9,389.8z"/>
</g>
</svg>
